# xmcd
#
# Track frame offsets: 
#        150
#        24509
#        47240
#        72710
#        98208
#        125261
#        149432
#        172821
#        220389
#        245047
#        270834
#        294702
#        316969
#        337615
#
# Disc length: 4703 seconds
#
# Revision: 0
# Processed by: cddbd v1.5.1PL2 Copyright (c) Steve Scherf et al.
# Submitted via: ExactAudioCopy v0.95b3
#
DISCID=d1125d0e
DTITLE=Marc Cohn - Live 04-05
DYEAR=2005
DGENRE=Blues
TTITLE0=Canyon
TTITLE1=Paper Walls
TTITLE2=Rainy Season
TTITLE3=She's Becoming Gold
TTITLE4=Olana
TTITLE5=Walking In Memphis
TTITLE6=Shadow
TTITLE7=Dig Down Deep
TTITLE8=Silver Thunderbird
TTITLE9=Walk Through The World
TTITLE10=True Companion
TTITLE11=Things We've Handed Down
TTITLE12=One Safe Place
TTITLE13=Stanger In A Car (Bonus Track)
EXTD=
EXTT0=
EXTT1=
EXTT2=
EXTT3=
EXTT4=
EXTT5=
EXTT6=
EXTT7=
EXTT8=
EXTT9=
EXTT10=
EXTT11=
EXTT12=
EXTT13=
PLAYORDER=
